<?xml version="1.0" standalone="no"?>
<!DOCTYPE svg PUBLIC "-//W3C//DTD SVG 20010904//EN"
 "http://www.w3.org/TR/2001/REC-SVG-20010904/DTD/svg10.dtd">
<svg version="1.0" xmlns="http://www.w3.org/2000/svg"
 width="1076.000000pt" height="1076.000000pt" viewBox="0 0 1076.000000 1076.000000"
 preserveAspectRatio="xMidYMid meet">
<metadata>
Created by potrace 1.14, written by Peter Selinger 2001-2017
</metadata>
<g transform="translate(0.000000,1076.000000) scale(0.100000,-0.100000)"
fill="#000000" stroke="none">
<path d="M8378 8555 c-1 -1 -33 -6 -70 -9 -183 -19 -444 -82 -564 -137 -24
-10 -46 -19 -49 -19 -8 0 -199 -94 -230 -113 -119 -72 -285 -188 -325 -227 -9
-8 -36 -32 -60 -54 -58 -50 -140 -126 -140 -130 0 -2 -21 -25 -47 -52 -66 -67
-108 -116 -178 -204 -33 -41 -64 -80 -70 -86 -5 -6 -17 -22 -25 -34 -8 -12
-23 -31 -32 -42 -10 -12 -18 -24 -18 -28 0 -3 -8 -15 -17 -26 -10 -11 -22 -27
-28 -36 -5 -9 -38 -57 -72 -107 -35 -51 -63 -93 -63 -96 0 -2 -33 -60 -74
-129 -41 -69 -87 -149 -103 -178 -15 -29 -32 -57 -36 -63 -5 -5 -73 -122 -152
-260 -79 -137 -148 -254 -152 -260 -4 -5 -17 -27 -28 -47 -31 -57 -94 -166
-140 -243 -23 -38 -45 -77 -48 -85 -4 -8 -16 -28 -27 -45 -11 -16 -30 -48 -42
-70 -12 -22 -28 -49 -35 -60 -6 -11 -22 -39 -34 -62 -11 -24 -25 -43 -30 -43
-5 0 -9 -7 -9 -15 0 -8 -18 -43 -40 -77 -22 -35 -40 -68 -40 -75 0 -6 -4 -13
-8 -15 -4 -1 -26 -34 -48 -73 -21 -38 -51 -90 -66 -115 -15 -25 -33 -56 -40
-70 -8 -14 -46 -80 -86 -147 -40 -67 -72 -126 -72 -132 0 -6 -4 -11 -9 -11 -5
0 -11 -8 -15 -17 -3 -10 -15 -34 -27 -53 -12 -19 -46 -78 -76 -130 -129 -221
-195 -330 -206 -342 -7 -7 -21 -27 -32 -45 -27 -42 -115 -143 -193 -221 -255
-252 -593 -434 -942 -505 -147 -31 -233 -39 -395 -37 -181 2 -215 3 -215 10 0
3 -14 5 -31 4 -70 -2 -391 80 -428 110 -8 6 -17 10 -20 10 -10 -2 -32 6 -99
37 -35 16 -65 29 -67 29 -2 0 -51 28 -107 62 -88 52 -155 99 -242 168 -31 25
-158 143 -175 164 -9 10 -23 26 -32 35 -38 38 -140 174 -182 242 -63 102 -197
387 -197 418 0 5 534 9 1188 10 653 0 1203 3 1222 6 19 3 42 6 50 6 8 0 51 7
95 15 110 21 108 20 125 27 8 3 56 17 105 32 97 29 115 36 245 98 135 64 282
162 404 270 83 73 168 164 224 237 15 19 29 37 32 40 13 13 90 129 90 136 0 4
6 15 14 23 60 69 195 413 220 561 18 105 27 185 32 265 3 49 7 91 9 93 2 2 -1
17 -5 33 -5 18 -5 29 1 29 6 0 7 5 4 10 -4 6 -8 43 -11 82 -2 39 -6 83 -9 96
-2 14 -8 46 -12 71 -8 52 -10 60 -13 64 -1 1 -3 11 -4 22 -4 31 -28 129 -35
140 -3 6 -6 12 -6 15 -4 36 -55 159 -122 295 -29 59 -135 230 -152 245 -4 3
-18 21 -33 42 -15 20 -44 53 -64 75 -20 21 -51 54 -68 73 -26 28 -140 129
-203 180 -36 29 -188 123 -232 143 -27 13 -57 30 -66 37 -8 7 -15 10 -15 6 0
-4 -12 0 -28 8 -107 55 -505 166 -682 190 -19 3 -53 8 -75 11 -50 7 -107 13
-210 21 -109 9 -2673 9 -2682 1 -11 -12 -9 -1258 2 -1265 6 -4 597 -7 1315 -8
1282 -1 1350 -3 1460 -25 30 -6 69 -12 87 -14 18 -2 41 -9 53 -15 11 -6 20 -8
20 -6 0 6 132 -42 200 -73 169 -75 308 -257 346 -450 16 -81 11 -228 -11 -301
-33 -115 -102 -228 -186 -305 -52 -48 -135 -105 -153 -105 -6 0 -17 -5 -23
-11 -6 -6 -46 -21 -89 -35 l-78 -24 -1820 0 c-1001 0 -1821 -2 -1823 -4 -9 -8
-17 -242 -17 -471 -1 -227 3 -311 19 -415 3 -19 7 -53 10 -75 5 -41 7 -53 25
-140 6 -27 12 -59 14 -70 13 -72 99 -362 125 -420 5 -11 26 -60 46 -110 21
-49 57 -128 81 -176 24 -47 44 -90 44 -97 0 -7 5 -12 10 -12 6 0 10 -5 10 -11
0 -30 253 -402 341 -501 162 -182 254 -273 390 -388 252 -214 584 -411 894
-530 61 -23 119 -46 130 -50 11 -5 29 -11 40 -13 11 -3 52 -15 90 -27 94 -29
199 -54 262 -64 18 -2 40 -7 50 -10 33 -10 91 -19 188 -30 33 -4 94 -11 135
-15 76 -9 520 -7 575 3 17 2 57 7 90 10 33 3 70 8 81 10 12 2 37 7 55 10 30 5
87 16 159 31 14 2 39 7 55 10 63 13 341 99 400 124 11 5 61 26 110 46 162 67
337 161 495 264 47 30 87 58 90 61 3 3 18 14 33 23 16 10 36 25 45 32 9 8 46
37 82 65 192 152 406 372 550 565 16 22 33 45 38 50 45 55 163 245 245 395 77
142 157 286 167 300 6 8 13 22 17 30 4 8 29 53 56 100 27 47 58 101 69 120 11
19 42 72 69 116 27 45 49 85 49 89 0 3 12 22 26 41 15 19 22 34 18 34 -5 0 -4
4 2 8 9 6 136 220 222 372 13 25 33 57 43 72 11 14 19 28 19 31 0 8 109 190
120 201 6 6 10 18 10 27 0 10 4 19 9 21 7 2 113 180 171 286 8 15 30 51 48 80
17 29 32 57 32 62 0 6 4 10 8 10 4 0 13 12 19 28 13 30 51 96 89 154 13 21 24
41 24 46 0 5 9 19 20 32 11 13 20 29 20 37 0 7 5 13 10 13 6 0 10 4 10 9 0 9
72 135 108 191 9 14 17 27 17 30 1 7 113 198 136 232 11 15 19 29 19 32 0 12
114 194 148 235 175 218 355 330 617 386 39 9 295 13 295 5 0 -3 8 -6 18 -6
70 -3 205 -46 322 -104 181 -91 325 -233 414 -409 15 -29 29 -61 31 -70 3 -9
12 -36 21 -61 16 -45 21 -62 30 -110 3 -14 7 -32 9 -40 9 -32 18 -129 19 -205
l1 -80 -550 -1 c-478 -1 -663 -6 -686 -19 -3 -2 -28 -7 -55 -11 -27 -3 -52 -8
-57 -11 -4 -2 -20 -6 -35 -9 -112 -19 -449 -160 -558 -233 -25 -17 -49 -31
-55 -31 -5 0 -9 -4 -9 -10 0 -5 -6 -10 -12 -10 -7 0 -24 -9 -38 -20 -14 -11
-43 -34 -65 -50 -83 -63 -122 -98 -215 -190 -99 -99 -152 -158 -179 -200 -18
-27 -39 -55 -59 -76 -7 -8 -10 -14 -5 -14 4 0 1 -6 -7 -13 -8 -7 -21 -23 -28
-37 -7 -14 -21 -38 -32 -55 -19 -29 -102 -194 -134 -266 -16 -37 -85 -237 -91
-268 -56 -255 -60 -292 -59 -526 1 -176 6 -252 19 -315 3 -14 9 -50 15 -80 6
-30 17 -80 26 -110 8 -30 16 -62 19 -70 3 -13 41 -121 65 -185 4 -11 9 -24 11
-30 2 -5 30 -61 62 -124 124 -242 260 -418 487 -632 10 -9 44 -36 76 -60 33
-24 67 -51 77 -60 9 -9 30 -22 45 -30 15 -8 29 -16 32 -19 8 -8 64 -44 70 -45
3 0 34 -17 70 -37 94 -52 239 -111 370 -151 104 -32 140 -41 205 -52 63 -10
92 -15 113 -19 83 -17 302 -23 447 -12 136 10 204 21 330 52 241 60 435 146
638 283 38 25 76 51 85 56 9 6 24 18 33 27 9 10 19 18 23 18 17 0 316 294 316
311 0 4 11 20 25 34 41 46 151 215 202 315 63 122 132 293 148 369 3 11 7 31
10 44 43 187 54 314 59 679 2 146 7 271 11 277 3 6 3 11 -2 11 -9 0 -9 57 0
66 3 3 2 16 -3 29 -5 13 -6 25 -4 28 3 3 -455 5 -1018 5 l-1024 0 0 -439 0
-439 256 0 c140 -1 337 -1 437 -1 110 1 184 -3 188 -9 7 -12 -94 -210 -107
-210 -4 0 -8 -4 -8 -9 0 -5 -12 -24 -27 -41 -119 -141 -270 -245 -433 -300
-67 -22 -71 -23 -155 -39 -62 -12 -237 -11 -307 1 -62 11 -179 47 -192 59 -6
5 -16 9 -23 9 -7 0 -52 23 -100 52 -60 35 -117 81 -185 149 -54 54 -98 102
-98 108 0 5 -6 16 -13 23 -52 52 -140 275 -154 388 -35 298 55 571 259 787
143 152 339 249 563 280 40 5 401 6 740 1 183 -2 324 6 400 25 11 3 43 10 70
17 152 34 344 129 474 235 35 29 171 168 171 176 0 3 13 22 30 40 16 19 30 37
30 41 0 4 13 26 29 50 59 89 149 308 167 408 3 14 7 33 10 42 28 94 33 318 10
493 -20 148 -46 266 -84 375 -3 8 -6 17 -7 20 -22 64 -100 245 -122 285 -13
22 -28 51 -35 65 -7 14 -16 30 -21 35 -4 6 -30 46 -58 90 -28 44 -55 82 -60
83 -5 2 -9 8 -9 13 0 27 -235 281 -326 353 -15 11 -43 36 -63 53 -20 18 -42
33 -48 33 -7 0 -13 4 -13 9 0 14 -178 125 -300 187 -82 42 -289 131 -320 139
-8 2 -28 9 -45 15 -41 16 -172 48 -231 56 -27 3 -68 9 -92 14 -40 7 -486 12
-494 5z"/>
</g>
</svg>
