<svg width="512" height="301" viewBox="0 0 512 301" fill="none" xmlns="http://www.w3.org/2000/svg">
<path d="M379.624 43.0543C379.624 43.0543 329.823 -54.516 307.997 47.4654C277.069 63.2038 227.472 39.0765 168.243 43.2816C147.838 44.7354 0.0497559 41.4158 3.31299e-05 172.471C-0.0496896 256.216 55.8813 299.235 91.7077 300.774C99.9783 301.111 132.102 300.774 134.173 300.663C145.174 300.156 157.091 299.638 157.23 293.858C157.515 281.719 110.581 276.747 106.902 274.121C103.246 271.492 103.246 255.408 124.726 261.174C161.938 271.663 225.718 264.856 240.391 260.665C255.064 256.453 264.686 278.127 273.068 289.667C281.455 301.203 294.555 300.666 294.555 300.666C294.555 300.666 339.114 300.666 350.131 300.666C361.129 300.666 357.466 288.33 333.353 283.094C309.24 277.852 322.642 265.658 333.353 255.077C343.217 245.334 368.23 219.39 386.808 216.281C509.987 195.32 508.306 119.308 506.729 107.784C539.996 76.4206 405.828 44.6478 379.624 43.0543Z" fill="white"/>
</svg>
