<svg width="446" height="437" viewBox="0 0 446 437" fill="none" xmlns="http://www.w3.org/2000/svg">
<path d="M63.6794 221.48C106.438 235.591 163.116 243.362 223.279 243.362C283.51 243.362 340.096 235.687 382.613 221.751C422.459 208.69 445.313 191.516 445.313 174.634C445.313 152.754 406.89 130.612 347.013 117.734L348.674 148.26C348.747 149.594 348.373 150.914 347.611 152.01C346.849 153.107 345.742 153.918 344.467 154.315L309.367 165.247C281.407 174.325 252.197 178.964 222.8 178.996C193.508 178.985 164.403 174.337 136.564 165.225L101.545 154.318C100.27 153.921 99.1641 153.11 98.4021 152.013C97.64 150.917 97.2657 149.597 97.3384 148.263L99.0234 117.277C39.2004 130.129 0.693359 152.325 0.693359 174.084C0.693359 190.995 23.6504 208.27 63.6794 221.48V221.48Z" fill="white"/>
<path d="M305.732 153.812L336.432 144.25L329.664 19.9264C329.496 16.8352 328.649 13.819 327.183 11.0925C325.716 8.36589 323.668 5.99586 321.182 4.1509C318.696 2.30595 315.834 1.03141 312.799 0.417914C309.765 -0.195578 306.633 -0.132946 303.625 0.601351L256.525 12.1014C234.495 17.4574 211.502 17.4574 189.471 12.1014L142.371 0.601351C139.364 -0.132946 136.232 -0.195578 133.197 0.417914C130.163 1.03141 127.301 2.30595 124.815 4.1509C122.329 5.99586 120.28 8.36589 118.814 11.0925C117.348 13.819 116.501 16.8352 116.332 19.9264L109.568 144.25L140.204 153.793C193.978 171.38 251.955 171.386 305.732 153.812V153.812Z" fill="white"/>
<path d="M259.17 303.898C245.604 292.811 234.47 287.867 223.056 287.867C211.642 287.867 200.507 292.811 186.941 303.898L194.535 313.19C216.393 295.326 229.719 295.326 251.576 313.19L259.17 303.898Z" fill="white"/>
<path d="M134.037 415.899C170.061 415.899 199.265 386.696 199.265 350.671C199.265 314.647 170.061 285.443 134.037 285.443C98.0122 285.443 68.8086 314.647 68.8086 350.671C68.8086 386.696 98.0122 415.899 134.037 415.899Z" fill="white"/>
<path d="M373.293 375.739C387.091 342.452 371.291 304.283 338.005 290.486C304.718 276.689 266.549 292.488 252.752 325.774C238.954 359.061 254.754 397.23 288.04 411.027C321.327 424.825 359.496 409.025 373.293 375.739Z" fill="white"/>
</svg>
