<svg width="512" height="210" viewBox="0 0 512 210" fill="none" xmlns="http://www.w3.org/2000/svg">
<path d="M323.802 51.7645C317.8 33.7871 289.319 0.429688 280.829 0.429688C272.341 0.429688 269.703 55.0457 250.858 59.7649C232.762 64.2873 144.442 85.2431 144.442 85.2431C144.442 85.2431 129.904 73.4053 125.462 74.2467C121.728 74.9569 119.918 91.5379 108.5 92.4058C97.0965 93.2699 82.0545 92.59 82.0545 92.59C55.5671 39.6202 0 36.7705 0 36.7705C28.5398 79.2321 56.0099 107.204 17.0464 166.165C44.0233 166.165 78.4984 125.202 80.9961 116.209C90.5506 113.683 101.546 113.777 107.476 120.703C111.971 125.954 112.093 128.369 115.596 129.369C119.092 130.366 122.961 121.708 128.959 121.708C134.954 121.708 164.011 130.904 171.424 133.193C178.832 135.479 186.411 161.661 195.902 162.664C205.391 163.668 226.875 145.18 231.871 145.18C236.868 145.18 273.835 150.672 314.805 149.168C321.798 156.666 330.803 171.805 312.528 200.14C309.037 205.637 310.031 214.631 321.527 205.637C333.014 196.637 354.222 184.031 375.705 145.066C397.686 143.064 511.999 115.208 511.999 94.7282C512 74.2467 386.249 49.7651 323.802 51.7645Z" fill="white"/>
</svg>
