<svg width="512" height="344" viewBox="0 0 512 344" fill="none" xmlns="http://www.w3.org/2000/svg">
<path d="M430.763 136.168C370.939 137.905 291.366 145.456 203.672 160.554C115.975 175.647 97.1623 151.227 88.6792 123.976C79.0734 93.1212 89.0409 77.5574 89.0409 77.5574C145.793 68.3355 150.753 32.1782 149.332 11.6C143.662 18.7062 134.978 23.3709 127.776 23.6422C122.617 23.8299 106.78 7.69625 81.242 33.5926C82.6649 19.4075 75.8794 10.0388 58.6283 5.21718C40.9267 0.247082 27.354 24.1506 0.381083 0.253906C-5.29366 75.4417 54.2861 77.5574 54.2861 77.5574C30.0157 211.081 131.079 279.038 132.818 287.173C134.56 295.293 105.521 303.421 110.743 311.568C115.973 319.69 151.402 317.96 172.316 313.878C273.946 340.589 295.956 345.798 417.403 342.936C515.131 340.6 514.038 254.613 511.148 224.359C505.471 164.888 490.586 134.423 430.763 136.168Z" fill="white"/>
</svg>
