<?xml version="1.0" encoding="UTF-8" standalone="no"?>
<!DOCTYPE svg PUBLIC "-//W3C//DTD SVG 1.1//EN" "http://www.w3.org/Graphics/SVG/1.1/DTD/svg11.dtd">
<svg xmlns="http://www.w3.org/2000/svg" xmlns:xlink="http://www.w3.org/1999/xlink" version="1.1" width="800pt" height="800pt" viewBox="0 0 800 800">
<g enable-background="new">
<g id="Layer-1" data-name="Layer">
<path transform="matrix(1,0,0,-1,0,800)" d="M 556.389 522.518 L 594.36 522.518 L 594.36 333.61 L 556.389 333.61 Z " fill="#f7a600"/>
<clipPath id="cp0">
<path transform="matrix(1,0,0,-1,0,800)" d="M 0 800 L 800 800 L 800 0 L 0 0 Z "/>
</clipPath>
<g clip-path="url(#cp0)">
<path transform="matrix(1,0,0,-1,110.0264,443.1807)" d="M 0 0 L -39.608 0 L -39.608 -46.432 L 0 -46.432 C 17.215 -46.432 25.398 -35.825 25.398 -23.079 C 25.398 -10.347 17.2 0 0 0 M -2.455 76.679 L -39.608 76.679 L -39.608 33.166 L -2.455 33.166 C 13.659 33.166 22.676 41.924 22.676 54.93 C 22.676 67.922 13.659 76.679 -2.455 76.679 M 3.824 -79.323 L -77.58 -79.323 L -77.58 109.584 L .55 109.584 C 38.522 109.584 60.647 88.89 60.647 56.519 C 60.647 35.565 46.438 22.023 36.603 17.516 C 48.342 12.212 63.37 .274 63.37 -24.943 C 63.37 -60.219 38.522 -79.323 3.824 -79.323 " fill="#14192c"/>
<path transform="matrix(1,0,0,-1,289.2129,445.0303)" d="M 0 0 L 0 -77.474 L -37.704 -77.474 L -37.704 0 L -96.163 111.434 L -54.918 111.434 L -18.584 35.29 L 17.201 111.434 L 58.446 111.434 Z " fill="#14192c"/>
<path transform="matrix(1,0,0,-1,451.4854,443.1807)" d="M 0 0 L -39.607 0 L -39.607 -46.432 L 0 -46.432 C 17.215 -46.432 25.398 -35.825 25.398 -23.079 C 25.398 -10.347 17.215 0 0 0 M -2.454 76.679 L -39.607 76.679 L -39.607 33.166 L -2.454 33.166 C 13.66 33.166 22.676 41.924 22.676 54.93 C 22.676 67.922 13.66 76.679 -2.454 76.679 M 3.824 -79.323 L -77.579 -79.323 L -77.579 109.584 L .551 109.584 C 38.522 109.584 60.647 88.89 60.647 56.519 C 60.647 35.565 46.438 22.023 36.603 17.516 C 48.343 12.212 63.371 .274 63.371 -24.943 C 63.371 -60.219 38.522 -79.323 3.824 -79.323 " fill="#14192c"/>
<path transform="matrix(1,0,0,-1,716.7412,366.502)" d="M 0 0 L 0 -156.017 L -37.972 -156.017 L -37.972 0 L -88.784 0 L -88.784 32.906 L 50.812 32.906 L 50.812 0 Z " fill="#14192c"/>
</g>
</g>
</g>
</svg>
