<svg width="272" height="261" viewBox="0 0 272 261" fill="none" xmlns="http://www.w3.org/2000/svg">
<path d="M40.0721 216.738C39.8901 214.26 38.9071 212.023 37.1261 210.029C35.3421 208.035 32.7281 207.037 29.2831 207.037C26.0191 207.037 23.4811 208.02 21.6681 209.984C19.8551 211.948 18.7971 214.199 18.4951 216.738H40.0721ZM30.0091 243.844C23.2391 243.844 17.6481 241.729 13.2371 237.499C8.82414 233.268 6.61914 227.707 6.61914 220.817C6.61914 214.351 8.74914 208.912 13.0101 204.499C17.2711 200.088 22.6951 197.881 29.2831 197.881C35.8101 197.881 41.0981 200.102 45.1481 204.545C49.1971 208.986 51.2221 214.804 51.2221 221.996V224.534H18.6761C19.0391 227.435 20.3381 229.853 22.5751 231.787C24.8101 233.721 27.7111 234.688 31.2781 234.688C33.2121 234.688 35.3121 234.296 37.5791 233.509C39.8451 232.724 41.6421 231.667 42.9721 230.337L48.0501 237.77C43.6371 241.82 37.6241 243.844 30.0091 243.844Z" fill="#1D1D1B"/>
<path d="M71.0765 242.756H59.5625V182.287H71.0765V242.756Z" fill="#1D1D1B"/>
<path d="M98.2734 243.844C94.4654 243.844 90.8234 243.24 87.3484 242.031C83.8734 240.823 80.9874 239.161 78.6914 237.044L83.6764 228.976C85.3684 230.548 87.6664 231.938 90.5674 233.147C93.4684 234.356 96.2174 234.959 98.8174 234.959C101.233 234.959 103.062 234.537 104.301 233.691C105.54 232.845 106.16 231.696 106.16 230.245C106.16 229.157 105.51 228.266 104.21 227.571C102.911 226.876 101.31 226.378 99.4064 226.074C97.5024 225.773 95.4174 225.32 93.1514 224.715C90.8844 224.112 88.7994 223.386 86.8954 222.539C84.9924 221.694 83.3894 220.35 82.0904 218.505C80.7904 216.662 80.1414 214.38 80.1414 211.66C80.1414 207.793 81.7424 204.53 84.9464 201.869C88.1494 199.211 92.5304 197.881 98.0914 197.881C104.86 197.881 110.752 199.875 115.77 203.864L111.146 211.751C109.755 210.301 107.897 209.092 105.571 208.124C103.244 207.158 100.78 206.674 98.1824 206.674C96.1274 206.674 94.4654 207.082 93.1964 207.898C91.9264 208.714 91.2934 209.757 91.2934 211.026C91.2934 211.993 91.9264 212.793 93.1964 213.428C94.4654 214.063 96.0664 214.532 98.0014 214.833C99.9344 215.137 102.019 215.604 104.256 216.239C106.492 216.873 108.577 217.63 110.511 218.505C112.445 219.382 114.047 220.787 115.317 222.721C116.585 224.656 117.22 227.013 117.22 229.792C117.22 233.903 115.544 237.272 112.189 239.901C108.835 242.53 104.195 243.844 98.2734 243.844Z" fill="#1D1D1B"/>
<path d="M142.786 236.047C147.077 236.047 150.16 234.778 152.034 232.239V226.8C150.16 224.262 147.077 222.992 142.786 222.992C140.43 222.992 138.465 223.582 136.893 224.76C135.321 225.939 134.537 227.557 134.537 229.61C134.537 231.605 135.321 233.177 136.893 234.324C138.465 235.474 140.43 236.047 142.786 236.047ZM163.548 242.756H152.034V238.223C148.89 241.971 144.266 243.844 138.163 243.844C134.233 243.844 130.714 242.561 127.601 239.991C124.487 237.423 122.932 233.871 122.932 229.338C122.932 224.624 124.458 221.089 127.511 218.732C130.561 216.374 134.113 215.196 138.163 215.196C144.388 215.196 149.011 216.98 152.034 220.545V214.652C152.034 212.417 151.157 210.633 149.404 209.303C147.651 207.975 145.325 207.309 142.424 207.309C137.648 207.309 133.388 209.031 129.64 212.477L125.289 204.771C130.486 200.178 136.862 197.88 144.418 197.88C150.039 197.88 154.632 199.181 158.198 201.779C161.764 204.378 163.548 208.61 163.548 214.471V242.756Z" fill="#1D1D1B"/>
<path d="M195.095 232.24C196.967 232.24 198.841 231.758 200.716 230.79C202.588 229.824 204.009 228.645 204.977 227.254V213.111C204.009 211.661 202.604 210.469 200.761 209.53C198.916 208.594 197.029 208.125 195.095 208.125C191.77 208.125 189.096 209.213 187.072 211.389C185.046 213.565 184.034 216.497 184.034 220.182C184.034 223.87 185.046 226.801 187.072 228.976C189.096 231.152 191.77 232.24 195.095 232.24ZM192.919 260.526C185.364 260.526 179.078 258.35 174.062 253.998L179.23 245.658C182.493 249.284 187.056 251.097 192.919 251.097C196.183 251.097 199.007 250.236 201.396 248.513C203.783 246.791 204.977 243.965 204.977 240.037V235.594C201.35 240.188 196.847 242.484 191.468 242.484C185.786 242.484 181.148 240.536 177.552 236.637C173.955 232.739 172.158 227.254 172.158 220.182C172.158 213.173 173.955 207.703 177.552 203.773C181.148 199.846 185.786 197.881 191.468 197.881C196.908 197.881 201.409 200.118 204.977 204.59V198.969H216.581V239.764C216.581 243.754 215.869 247.168 214.45 250.01C213.03 252.849 211.111 254.996 208.694 256.446C206.276 257.896 203.783 258.939 201.214 259.574C198.645 260.209 195.879 260.526 192.919 260.526Z" fill="#1D1D1B"/>
<path d="M240.151 229.928C242.146 232.375 244.866 233.6 248.31 233.6C251.755 233.6 254.49 232.375 256.515 229.928C258.54 227.48 259.552 224.443 259.552 220.817C259.552 217.251 258.54 214.244 256.515 211.796C254.49 209.349 251.755 208.124 248.31 208.124C244.866 208.124 242.146 209.349 240.151 211.796C238.157 214.244 237.16 217.251 237.16 220.817C237.16 224.443 238.157 227.48 240.151 229.928ZM265.173 237.181C260.942 241.623 255.321 243.844 248.31 243.844C241.298 243.844 235.694 241.623 231.494 237.181C227.292 232.739 225.193 227.284 225.193 220.817C225.193 214.351 227.292 208.911 231.494 204.498C235.694 200.088 241.298 197.881 248.31 197.881C255.321 197.881 260.942 200.088 265.173 204.498C269.403 208.911 271.519 214.351 271.519 220.817C271.519 227.284 269.403 232.739 265.173 237.181Z" fill="#1D1D1B"/>
<path d="M219.561 116.542H241.981C240.04 122.092 236.011 126.642 230.861 129.392C230.811 129.422 230.75 129.452 230.701 129.482C230.46 129.612 230.21 129.732 229.96 129.852C229.831 129.912 229.701 129.972 229.561 130.032C229.22 130.192 228.88 130.332 228.54 130.472C228.451 130.512 228.371 130.542 228.281 130.572C227.96 130.702 227.641 130.822 227.311 130.932C227.011 131.032 226.72 131.132 226.42 131.222C226.181 131.292 225.951 131.362 225.71 131.422L224.96 131.602C224.701 131.662 224.441 131.722 224.191 131.772C223.581 131.902 222.97 131.992 222.351 132.062C222.04 132.102 221.72 132.132 221.411 132.152C221.111 132.182 220.821 132.202 220.531 132.212C220.341 132.212 220.151 132.222 219.96 132.222C219.611 132.232 219.271 132.232 218.931 132.222C218.561 132.212 218.201 132.202 217.841 132.172C217.42 132.142 217.011 132.092 216.601 132.042C216.451 132.032 216.3 132.002 216.141 131.982C215.991 131.962 215.831 131.942 215.681 131.912C215.331 131.852 214.981 131.782 214.63 131.712C214.29 131.632 213.931 131.542 213.591 131.452C213.261 131.362 212.911 131.262 212.581 131.152C212.231 131.052 211.901 130.942 211.571 130.812C211.241 130.692 210.92 130.562 210.591 130.422C210.271 130.282 209.941 130.142 209.63 129.982C209.311 129.842 209 129.672 208.691 129.512C208.021 129.152 207.38 128.762 206.75 128.352C206.621 128.282 206.5 128.192 206.371 128.092C206.191 127.972 206.011 127.842 205.831 127.712C205.71 127.632 205.611 127.542 205.5 127.462C205.391 127.382 205.281 127.302 205.17 127.212C204.63 126.782 204.091 126.332 203.581 125.852C199.491 122.022 196.72 116.792 196.13 111.012C194.771 97.8124 204.941 84.9924 219.72 84.8424V84.8024H255.891H271.321L271.29 75.5124L271.281 74.8224V56.9924H271.245C271.252 56.3344 271.29 52.7604 271.253 51.6274V51.5474C271.183 49.3474 270.984 47.2074 270.664 45.0974L270.474 43.9574C270.003 41.2874 269.333 38.6874 268.433 36.1274C267.543 33.5574 266.423 31.0474 265.083 28.5574C260.263 19.6674 252.484 11.1774 241.253 5.61737C240.383 5.18737 239.494 4.77737 238.604 4.39737C238.583 4.38737 238.574 4.38737 238.554 4.38737C237.673 3.99737 236.784 3.65738 235.904 3.32738C235.894 3.31738 235.894 3.31738 235.883 3.31738C235.064 2.93738 234.183 2.57738 233.244 2.24738C233.093 2.18738 232.933 2.13737 232.774 2.08737C232.624 2.03737 232.463 1.97737 232.304 1.92737C232.154 1.88737 231.994 1.83738 231.843 1.78738C231.683 1.73738 231.534 1.69737 231.374 1.64737C230.713 1.45737 230.024 1.28738 229.314 1.12738C227.883 0.80738 226.364 0.547371 224.724 0.367371C223.914 0.267371 223.074 0.197375 222.204 0.137375C221.864 0.107375 221.503 0.0973773 221.144 0.0773773C219.804 0.00737732 218.414 -0.01263 216.944 0.00737C216.253 0.00737 215.574 0.0173633 214.883 0.0473633C214.433 0.0673633 213.974 0.0973706 213.513 0.117371C213.284 0.127371 213.043 0.137374 212.814 0.167374H212.774C212.524 0.177374 212.284 0.197371 212.043 0.227371C211.894 0.227371 211.753 0.23737 211.604 0.25737C187.154 2.26737 173.064 18.0374 162.133 34.8474L162.083 34.9274L161.043 36.7274L161.013 36.7674L154.133 48.5974L154.114 48.6374L153.043 50.4774L152.404 51.5874L143.074 67.6374L127.543 94.3674L127.383 94.6474L125.944 97.1374L125.883 97.2274L122.503 103.047L122.244 103.487C121.194 105.327 120.003 107.097 118.704 108.787C118.234 109.407 117.724 110.017 117.213 110.617C110.364 118.627 100.883 124.347 90.0829 126.477C90.0739 126.477 90.0639 126.477 90.0539 126.487C87.0129 127.087 83.8639 127.397 80.6439 127.397C79.6729 127.397 78.7129 127.377 77.7529 127.317H77.7439C77.4039 127.297 77.0639 127.277 76.7239 127.247C72.8539 126.937 69.1139 126.167 65.5739 124.997C64.9739 124.797 64.3829 124.607 63.8039 124.377C62.9229 124.057 62.0639 123.707 61.2129 123.337C60.3639 122.957 59.5339 122.567 58.7039 122.147C58.1539 121.857 57.6139 121.567 57.0739 121.267C55.4739 120.367 53.9229 119.367 52.4329 118.297C49.5029 116.167 46.8139 113.717 44.4329 110.997C43.9229 110.417 43.4229 109.817 42.9439 109.207C42.2239 108.297 41.5429 107.347 40.8829 106.387C40.3239 105.547 39.7839 104.697 39.2629 103.807C39.1539 103.597 36.2929 98.2974 35.0739 94.4274H75.1269L122.988 94.3974L152.087 44.3174C149.068 38.4574 145.298 32.8974 140.757 27.7674C139.667 26.5374 138.528 25.3174 137.337 24.1374C133.877 20.6674 130.167 17.5774 126.278 14.8674C125.858 14.5674 125.417 14.2774 124.978 13.9874C124.337 13.5674 123.688 13.1574 123.028 12.7374C122.417 12.3674 121.818 12.0074 121.198 11.6474C121.148 11.6174 121.118 11.5974 121.078 11.5774L121.068 11.5674C121.007 11.5374 120.938 11.4974 120.877 11.4674C120.457 11.2174 120.028 10.9774 119.598 10.7374C119.548 10.7174 119.488 10.6774 119.438 10.6574C119.427 10.6474 119.417 10.6474 119.408 10.6374C119.058 10.4474 118.707 10.2574 118.348 10.0774V10.0674C118.148 9.96738 117.948 9.86736 117.757 9.76736C117.578 9.67736 117.408 9.57737 117.228 9.48737H117.218C116.778 9.25737 116.337 9.04738 115.888 8.82738C115.707 8.73738 115.518 8.63737 115.328 8.55737C115.308 8.54737 115.288 8.53737 115.257 8.52737C115.007 8.40737 114.748 8.27738 114.478 8.15738C114.468 8.15738 114.457 8.14737 114.448 8.13737C114.098 7.97737 113.748 7.82737 113.408 7.66737C113.358 7.65737 113.308 7.62738 113.257 7.60738C113.238 7.59738 113.218 7.58737 113.198 7.58737C113.007 7.49737 112.818 7.40738 112.618 7.32738C112.587 7.31738 112.558 7.29738 112.518 7.28738C112.268 7.17738 112.028 7.07737 111.778 6.97737C111.718 6.94737 111.658 6.92737 111.598 6.89737C111.578 6.88737 111.558 6.88738 111.548 6.87738H111.528C110.917 6.62738 110.298 6.37737 109.677 6.13737C109.667 6.13737 109.658 6.12738 109.648 6.12738C109.618 6.10738 109.568 6.09737 109.538 6.08737C109.158 5.92737 108.778 5.78738 108.408 5.65738C107.927 5.48738 107.457 5.30737 106.978 5.14737C106.957 5.12737 106.938 5.12738 106.908 5.12738C105.448 4.61738 103.968 4.15737 102.468 3.73737C101.957 3.59737 101.457 3.45738 100.948 3.32738C100.438 3.19738 99.9379 3.06737 99.4169 2.94737C98.3979 2.69737 97.3679 2.46737 96.3279 2.27737C96.0779 2.22737 95.8079 2.17738 95.5479 2.12738C95.2879 2.07738 95.0279 2.02737 94.7679 1.98737C94.7679 1.97737 94.7569 1.97737 94.7569 1.97737C94.2569 1.88737 93.7479 1.79738 93.2379 1.71738H93.1979C93.1879 1.71738 93.1879 1.70737 93.1769 1.70737C92.1769 1.55737 91.1769 1.41736 90.1669 1.29736C90.1079 1.28736 90.0379 1.27736 89.9679 1.26736C88.9879 1.15736 87.9979 1.05737 87.0179 0.977371C86.9379 0.967371 86.8479 0.957367 86.7779 0.957367C85.7179 0.877367 84.6579 0.817374 83.5869 0.777374C83.5579 0.777374 83.5379 0.767374 83.5279 0.777374C83.0379 0.747374 82.5379 0.737371 82.0479 0.727371C81.5379 0.717371 81.0279 0.717377 80.5069 0.717377H80.3979C79.9379 0.717377 79.4779 0.717371 79.0279 0.727371C78.5069 0.737371 77.9679 0.747374 77.4479 0.777374C76.9079 0.787374 76.3579 0.817382 75.8179 0.847382C72.8879 1.01738 69.9979 1.33737 67.1579 1.80737C62.4269 2.59737 57.8279 3.78738 53.4169 5.35738C48.9979 6.92738 44.7569 8.85737 40.7379 11.1374C38.3179 12.4974 35.9879 13.9774 33.7379 15.5674C32.5779 16.3974 31.4379 17.2474 30.3179 18.1374C29.1979 19.0174 28.1079 19.9274 27.0479 20.8774L34.0679 32.9674L43.9169 49.9374C45.0869 48.5474 46.3369 47.2274 47.6669 45.9774C53.0179 40.9274 59.5579 37.1074 66.8179 34.9274L66.8079 34.9574C67.9379 34.6174 69.0679 34.3174 70.2069 34.0474H70.2179C70.7569 33.9274 71.2979 33.8174 71.8369 33.7274C72.1879 33.6474 72.5379 33.5874 72.8979 33.5374C73.5179 33.4274 74.1579 33.3374 74.7779 33.2674C75.0779 33.2274 75.3769 33.1974 75.6769 33.1674C76.5869 33.0774 77.4979 33.0074 78.4169 32.9674C78.4269 32.9674 78.4269 32.9574 78.4379 32.9574C78.4479 32.9574 78.4479 32.9674 78.4569 32.9674C79.1979 32.9274 79.9479 32.9074 80.6879 32.9074C82.2179 32.9074 83.7379 32.9874 85.2179 33.1274C85.5179 33.1474 85.8079 33.1774 86.0979 33.2074C86.3879 33.2374 86.6769 33.2674 86.9679 33.3174C87.3179 33.3574 87.6579 33.4074 87.9979 33.4574C88.1179 33.4774 88.2379 33.4974 88.3579 33.5074C88.4169 33.5174 88.4879 33.5274 88.5579 33.5474C88.6669 33.5674 88.7779 33.5774 88.8979 33.6074C88.9379 33.6174 88.9779 33.6174 89.0179 33.6274C91.6269 34.1174 97.1879 35.4574 103.348 38.7774C103.998 39.1274 104.658 39.4974 105.318 39.8874C106.638 40.6774 107.968 41.5574 109.298 42.5474C110.298 43.2874 111.298 44.0774 112.278 44.9374C113.587 46.0874 114.877 47.3474 116.127 48.7174C116.138 48.7274 116.138 48.7374 116.148 48.7474L104.968 67.6674H54.2179L54.2069 67.6574H0.557911V67.7174H0.547916C0.547916 67.7174 0.547911 67.7274 0.557911 67.7374L0.537922 67.9774C0.367922 69.0474 -0.142078 72.9174 0.0379217 80.1774V80.2474C0.0379217 83.2474 0.206911 86.1874 0.557911 89.0874C0.747911 90.8874 1.00692 92.6674 1.34792 94.4274H1.34291C1.53391 95.4974 1.75292 96.5674 2.00292 97.6274C5.14392 111.417 11.9439 123.867 21.3239 133.917C22.0239 134.657 22.7339 135.397 23.4539 136.117C24.5339 137.187 25.6539 138.237 26.7929 139.257C27.6039 139.977 28.4329 140.687 29.2839 141.377C29.8039 141.787 30.3329 142.207 30.8639 142.627C31.4629 143.097 32.0639 143.537 32.6639 143.997C33.2739 144.437 33.8829 144.877 34.5129 145.307C34.9229 145.597 35.3429 145.877 35.7629 146.157C36.8939 146.897 38.0339 147.617 39.1939 148.297C39.7929 148.657 40.3939 149.007 41.0029 149.347C42.4329 150.157 43.9039 150.917 45.4039 151.637L45.4139 151.647C46.0129 151.917 46.6039 152.207 47.2039 152.477C48.0239 152.847 48.8539 153.197 49.6939 153.547C49.9739 153.657 50.2439 153.777 50.5339 153.887C51.1639 154.137 51.8039 154.387 52.4439 154.617C53.0829 154.857 53.7339 155.087 54.3829 155.297C56.4439 156.007 58.5539 156.627 60.6829 157.167C64.2439 158.057 67.9039 158.717 71.6239 159.117C74.5429 159.447 77.5129 159.607 80.5129 159.607C80.8639 159.607 81.2239 159.597 81.5739 159.587C81.9229 159.587 82.2739 159.577 82.6239 159.567C82.9229 159.557 83.2129 159.557 83.5129 159.537C84.2439 159.517 84.9839 159.467 85.7239 159.427C86.2629 159.397 86.8139 159.357 87.3539 159.307C87.8739 159.267 88.4039 159.217 88.9229 159.157C89.1439 159.137 89.3739 159.107 89.5929 159.087C90.0929 159.037 90.5929 158.967 91.0929 158.907C91.5929 158.837 92.0929 158.767 92.5829 158.697C93.0829 158.617 93.5829 158.547 94.0739 158.457C94.4229 158.397 94.7629 158.337 95.1139 158.277C95.4839 158.207 95.8639 158.137 96.2339 158.067C96.6329 157.987 97.0429 157.897 97.4539 157.817C97.9839 157.707 98.5129 157.587 99.0339 157.467C99.9439 157.247 100.833 157.027 101.724 156.787C102.173 156.667 102.623 156.537 103.074 156.407C103.744 156.207 104.414 156.017 105.074 155.797C106.513 155.347 107.933 154.857 109.333 154.307C109.933 154.087 110.524 153.847 111.114 153.607C112.224 153.147 113.333 152.667 114.433 152.157C114.944 151.927 115.454 151.687 115.954 151.437C116.204 151.327 116.444 151.197 116.683 151.077C116.933 150.957 117.173 150.837 117.414 150.707C122.673 148.047 127.593 144.807 132.093 141.087C132.793 140.497 133.474 139.907 134.154 139.317H134.164C135.564 138.087 136.904 136.797 138.224 135.457C138.543 135.127 138.873 134.787 139.194 134.457C139.593 134.037 139.984 133.607 140.383 133.177C141.554 131.877 142.694 130.547 143.784 129.177C144.364 128.447 144.923 127.697 145.484 126.957V126.947C146.604 125.447 147.654 123.907 148.664 122.327C148.994 121.807 149.333 121.277 149.644 120.747C150.133 119.947 150.604 119.127 151.054 118.317C151.284 117.907 151.513 117.497 151.734 117.077C151.954 116.667 152.173 116.247 152.383 115.827L152.423 115.737L157.774 106.207L157.904 105.967L193.944 44.2274L193.954 44.2174C193.994 44.1674 194.024 44.1174 194.064 44.0674C194.064 44.0574 194.064 44.0474 194.083 44.0374C194.083 44.0074 194.104 43.9674 194.114 43.9374L194.173 43.8274L195.194 42.0774C195.194 42.0774 195.224 42.0374 195.263 41.9474C195.284 41.9274 195.293 41.8874 195.324 41.8574C195.354 41.8174 195.383 41.7574 195.423 41.6974C196.383 40.1574 200.364 34.3774 207.003 31.4074C207.194 31.3274 207.383 31.2474 207.574 31.1674C207.763 31.0774 207.954 31.0174 208.144 30.9474C208.583 30.7774 209.043 30.6074 209.513 30.4774C209.604 30.4474 209.704 30.4174 209.784 30.3874C211.774 29.8074 213.843 29.4474 216.003 29.3674V29.3574C216.003 29.3574 216.013 29.3574 216.064 29.3474H216.123C216.354 29.3274 216.894 29.2974 217.624 29.3074C217.624 29.3074 219.374 29.2374 221.944 29.7174C222.154 29.7574 222.374 29.8074 222.604 29.8474C223.503 30.0474 224.484 30.3074 225.524 30.6574C225.784 30.7474 226.043 30.8374 226.304 30.9374C227.624 31.4374 229.013 32.0774 230.383 32.9174C230.944 33.2574 231.494 33.6274 232.034 34.0274C233.133 34.8374 234.204 35.7774 235.224 36.8774C235.984 37.6974 236.724 38.6174 237.414 39.6274C237.463 39.6974 237.503 39.7674 237.543 39.8374L237.873 40.3674C237.833 40.2774 237.784 40.1974 237.734 40.1174C240.459 44.1224 242.061 49.6704 242.169 56.9924H215.111C214.831 57.0024 214.54 57.0224 214.241 57.0524C213.991 57.0724 213.731 57.0924 213.47 57.1124C213.22 57.1424 212.97 57.1624 212.72 57.2024C212.451 57.2224 212.17 57.2624 211.911 57.2924C211.451 57.3524 210.991 57.4224 210.521 57.4924C210.05 57.5724 209.581 57.6624 209.101 57.7524C208.8 57.8124 208.5 57.8724 208.201 57.9424C207.25 58.1524 206.281 58.4024 205.311 58.6824C203.75 59.1424 202.161 59.6924 200.571 60.3324C191.371 64.0224 182 70.8024 175.661 81.0824C163.161 101.352 165.681 126.562 181.92 144.162C184.67 147.142 187.761 149.732 191.091 151.902C191.46 152.132 191.841 152.382 192.22 152.612C192.54 152.812 192.851 153.002 193.181 153.192C193.511 153.392 193.861 153.582 194.201 153.772C194.521 153.952 194.831 154.132 195.151 154.292C195.411 154.432 195.691 154.572 195.96 154.712C196.96 155.212 197.97 155.692 199 156.122C199.341 156.282 199.681 156.422 200.031 156.552C200.581 156.782 201.13 156.992 201.701 157.202C202.521 157.512 203.361 157.782 204.201 158.032C204.621 158.162 205.04 158.292 205.46 158.412H205.481C207.161 158.892 208.871 159.272 210.601 159.572C212.331 159.882 214.071 160.102 215.831 160.232C216.271 160.262 216.71 160.282 217.151 160.312C217.591 160.332 218.031 160.352 218.47 160.352C219.071 160.372 219.681 160.372 220.281 160.372C221.491 160.362 222.691 160.302 223.891 160.212C224.491 160.162 225.101 160.112 225.701 160.042C226.241 159.982 226.79 159.912 227.331 159.832C228.091 159.722 228.851 159.602 229.611 159.442C229.79 159.422 229.97 159.382 230.161 159.342C230.621 159.252 231.081 159.142 231.55 159.042C232.021 158.932 232.5 158.812 232.97 158.692C233.451 158.572 233.92 158.442 234.401 158.292H234.441C234.441 158.282 234.451 158.282 234.451 158.282C235.861 157.862 237.271 157.382 238.651 156.842C238.741 156.812 238.821 156.782 238.911 156.742C239.181 156.632 239.46 156.532 239.72 156.412C240.071 156.262 240.411 156.112 240.75 155.962C241.091 155.812 241.431 155.652 241.771 155.492H241.781C242.13 155.322 242.481 155.162 242.831 154.982C255.451 148.672 263.46 138.402 267.67 128.212C267.67 128.212 267.67 128.202 267.681 128.192C268.161 127.032 268.591 125.872 268.97 124.722C268.991 124.692 269 124.652 269 124.602C269.54 122.752 270.151 120.112 270.63 116.542C270.761 115.542 270.891 114.482 270.991 113.352C271.111 112.212 271.321 94.3224 271.321 94.3224H219.561V116.542Z" fill="#1D1D1B"/>
</svg>
