<svg xmlns="http://www.w3.org/2000/svg" version="1.1" xmlns:xlink="http://www.w3.org/1999/xlink" xmlns:svgjs="http://svgjs.com/svgjs" width="512" height="512" x="0" y="0" viewBox="0 0 32 32" style="enable-background:new 0 0 512 512" xml:space="preserve" class=""><g><g xmlns="http://www.w3.org/2000/svg" id="House"><path d="m29.61 12.21-13-10a1 1 0 0 0 -1.22 0l-13 10a1 1 0 0 0 .61 1.79h1v15a1 1 0 0 0 1 1h22a1 1 0 0 0 1-1v-15h1a1 1 0 0 0 .61-1.79zm-13.61-7.95 10.06 7.74h-20.12zm-2 23.74v-7h4v7zm12 0h-6v-8a1 1 0 0 0 -1-1h-6a1 1 0 0 0 -1 1v8h-6v-14h20z" fill="#779efc" data-original="#000000" class=""></path></g></g></svg>